<?xml version="1.0" encoding="utf-8"?>
<!-- Generator: Adobe Illustrator 26.5.0, SVG Export Plug-In . SVG Version: 6.00 Build 0)  -->
<svg version="1.1" id="Layer_1" xmlns="http://www.w3.org/2000/svg" xmlns:xlink="http://www.w3.org/1999/xlink" x="0px" y="0px"
	 viewBox="0 0 512 512" style="enable-background:new 0 0 512 512;" xml:space="preserve">
<style type="text/css">
	.st0{fill:#F9AB00;}
	.st1{fill:#E37400;}
</style>
<g id="XMLID_81_">
</g>
<g id="XMLID_87_">
</g>
<g id="XMLID_92_">
</g>
<g id="XMLID_97_">
</g>
<g>
	<path class="st0" d="M487.25,447.72c0,34.82-28.27,64.21-63.09,64.21c-2.15,0-5.43,0-7.58,0c-32.67-4.4-56.64-33.69-55.51-66.37
		V66.84c-1.13-32.67,22.84-60.94,55.51-66.37c34.82-4.4,66.37,20.69,70.77,55.51c0,2.15,0,5.43,0,7.58v384.16H487.25z"/>
	<path class="st1" d="M87.83,385.76c34.82,0,63.09,28.27,63.09,63.09s-28.27,63.09-63.09,63.09s-63.09-28.27-63.09-63.09
		C23.62,414.03,53.01,385.76,87.83,385.76z M254.36,193.12c-34.82,2.15-62.06,31.54-62.06,66.37v170.83
		c0,45.68,20.69,74.05,50.08,80.5c34.82,6.55,67.49-15.26,75.07-50.08c1.13-4.4,1.13-8.71,1.13-13.11V257.13
		c0-34.82-28.27-64.21-63.09-64.21h-1.13V193.12z"/>
</g>
</svg>
